<?xml version="1.0" standalone="no"?>
<!DOCTYPE svg PUBLIC "-//W3C//DTD SVG 20010904//EN"
 "http://www.w3.org/TR/2001/REC-SVG-20010904/DTD/svg10.dtd">
<svg version="1.0" xmlns="http://www.w3.org/2000/svg"
 width="717.000000pt" height="717.000000pt" viewBox="0 0 717.000000 717.000000"
 preserveAspectRatio="xMidYMid meet">
<metadata>
Created by potrace 1.14, written by Peter Selinger 2001-2017
</metadata>
<g transform="translate(0.000000,717.000000) scale(0.100000,-0.100000)"
fill="#000000" stroke="none">
<path d="M2735 6932 c-2 -2 -28 -6 -57 -8 -29 -2 -64 -6 -78 -9 -14 -4 -29 -7
-35 -8 -5 -2 -16 -7 -24 -11 -10 -7 -12 -6 -6 4 6 10 4 11 -6 4 -8 -5 -25 -10
-39 -12 -13 -2 -27 -6 -30 -10 -3 -4 -16 -9 -30 -10 -14 -2 -26 -8 -28 -12 -2
-5 -10 -6 -18 -3 -8 3 -14 1 -14 -4 0 -5 -9 -9 -20 -10 -11 -1 -33 -11 -49
-22 -15 -11 -31 -18 -35 -14 -3 3 -30 -10 -59 -30 -30 -21 -58 -37 -64 -37 -6
0 -13 -7 -17 -15 -3 -8 -10 -14 -15 -13 -5 2 -17 -6 -26 -17 -9 -11 -14 -13
-10 -5 4 8 -2 5 -13 -7 -11 -13 -24 -23 -29 -23 -4 0 -21 -14 -37 -30 -16 -17
-33 -30 -37 -30 -4 0 -11 -9 -14 -20 -4 -11 -10 -18 -15 -15 -5 3 -20 -10 -33
-30 -13 -19 -26 -32 -29 -29 -4 3 -9 -4 -13 -15 -3 -12 -11 -21 -16 -21 -5 0
-9 -6 -9 -14 0 -8 -7 -17 -16 -20 -9 -4 -14 -9 -10 -13 3 -3 -3 -13 -14 -20
-11 -8 -18 -19 -15 -24 4 -5 1 -9 -5 -9 -6 0 -9 -4 -6 -9 3 -5 -1 -11 -9 -15
-8 -3 -15 -12 -15 -21 0 -8 -5 -15 -11 -15 -5 0 -7 -4 -4 -10 3 -5 2 -10 -3
-10 -8 0 -23 -35 -21 -49 0 -2 -3 -7 -8 -10 -7 -5 -35 -58 -37 -71 -1 -3 -4
-9 -7 -15 -6 -10 -33 -85 -34 -95 0 -3 -3 -9 -6 -15 -4 -5 -5 -18 -4 -27 2
-10 0 -18 -4 -18 -4 0 -8 -6 -9 -12 -1 -22 -11 -73 -13 -73 -3 0 -9 -47 -12
-100 -2 -28 -5 -55 -8 -60 -7 -13 -2 -968 5 -1015 2 -19 8 -53 11 -75 3 -22 6
-48 6 -57 0 -10 5 -20 10 -23 5 -4 7 -11 4 -16 -4 -5 -3 -15 2 -21 4 -7 8 -19
9 -26 2 -8 6 -21 10 -30 4 -9 8 -25 9 -35 1 -11 6 -22 11 -25 5 -4 11 -16 12
-27 2 -11 8 -21 12 -23 5 -2 6 -10 3 -18 -3 -8 0 -14 6 -14 6 0 10 -3 9 -7 -4
-14 42 -103 53 -103 6 0 7 -4 4 -10 -3 -5 -1 -10 4 -10 6 0 10 -3 9 -7 -4 -12
61 -103 73 -103 6 0 7 -5 4 -10 -3 -6 1 -13 9 -16 9 -3 14 -9 11 -13 -2 -4 36
-46 86 -94 49 -48 89 -85 89 -82 0 3 14 -8 31 -25 17 -16 35 -27 40 -24 5 3 9
0 9 -6 0 -6 5 -8 10 -5 6 4 9 3 8 -2 -2 -4 0 -8 3 -8 3 0 13 -8 23 -17 10 -10
23 -18 31 -18 7 0 15 -7 19 -15 3 -8 12 -15 20 -15 8 0 16 -4 18 -9 2 -5 10
-11 18 -13 8 -2 17 -6 20 -9 13 -16 101 -79 95 -67 -5 7 2 3 14 -9 12 -13 26
-23 31 -23 6 0 19 -8 29 -17 38 -35 49 -42 55 -36 3 4 6 0 6 -7 0 -7 3 -11 6
-7 3 3 18 -5 32 -18 14 -13 29 -22 34 -19 4 3 8 0 8 -6 0 -6 5 -8 10 -5 6 4 9
1 8 -7 -2 -7 4 -13 12 -13 8 0 23 -10 33 -22 10 -13 23 -23 28 -23 11 0 72
-41 77 -52 2 -5 10 -8 18 -8 8 0 14 -5 14 -11 0 -5 5 -7 10 -4 6 3 13 -1 16
-9 3 -9 10 -14 14 -11 4 3 11 -2 14 -11 4 -9 9 -14 13 -11 3 4 12 -1 20 -11
10 -11 12 -12 8 -2 -4 8 3 4 14 -10 11 -14 21 -20 21 -15 0 6 5 2 11 -8 5 -9
17 -17 24 -17 8 0 15 -5 15 -12 0 -6 3 -9 6 -6 3 4 14 -2 25 -13 11 -11 23
-18 28 -15 4 3 14 -4 21 -15 8 -10 20 -19 27 -19 7 0 13 -5 13 -11 0 -5 5 -7
10 -4 6 3 13 -1 16 -9 3 -9 12 -16 20 -16 8 0 14 -5 14 -11 0 -5 5 -7 10 -4 6
3 13 -1 16 -9 3 -9 10 -14 14 -11 4 3 10 -2 14 -10 3 -8 12 -15 21 -15 8 0 15
-4 15 -10 0 -5 7 -10 15 -10 8 0 15 -4 15 -9 0 -5 14 -14 30 -21 17 -7 30 -17
30 -22 0 -5 4 -7 9 -3 6 3 14 -3 20 -12 6 -10 11 -14 11 -9 0 4 9 -2 21 -15
11 -13 18 -17 14 -9 -4 8 1 6 9 -4 9 -11 16 -17 16 -13 0 8 18 -5 49 -36 11
-10 25 -19 33 -20 7 -2 24 -13 36 -25 13 -13 27 -20 32 -17 5 3 14 -3 19 -14
6 -11 21 -23 33 -27 12 -3 31 -15 42 -26 30 -28 61 -44 50 -26 -4 7 7 -2 25
-20 18 -17 38 -32 44 -32 7 0 23 -12 36 -25 13 -14 26 -23 29 -20 3 2 11 -3
19 -13 9 -10 12 -11 7 -2 -4 8 4 3 19 -12 14 -16 33 -28 42 -28 8 0 15 -3 15
-7 0 -5 12 -17 27 -27 16 -12 23 -14 18 -5 -5 8 4 2 19 -13 15 -15 41 -33 57
-40 16 -7 29 -16 29 -19 0 -4 12 -14 26 -24 18 -11 24 -13 19 -4 -5 8 8 -2 28
-20 21 -19 37 -31 37 -26 0 5 7 0 16 -11 8 -10 12 -12 8 -4 -4 8 5 3 21 -12
15 -16 32 -28 37 -28 5 0 16 -6 23 -13 8 -6 20 -16 28 -22 7 -5 24 -19 37 -30
14 -12 20 -14 15 -5 -5 8 4 3 19 -12 16 -15 32 -25 37 -22 5 3 9 1 9 -4 0 -10
57 -47 74 -49 5 -1 12 -7 17 -15 5 -7 12 -13 16 -13 5 0 22 -12 38 -28 16 -15
33 -27 37 -27 5 0 10 0 13 0 3 0 18 -11 33 -25 15 -14 30 -25 34 -25 5 0 10 0
13 -1 2 0 18 -13 36 -29 17 -17 35 -28 39 -25 4 3 11 -2 14 -11 3 -8 10 -13
15 -10 5 3 12 -1 15 -10 3 -8 10 -12 16 -9 5 3 10 1 10 -4 0 -6 7 -11 16 -11
8 0 12 -5 9 -10 -3 -5 1 -10 9 -10 9 0 16 -5 16 -11 0 -5 4 -8 9 -5 5 3 12 -1
15 -10 4 -9 9 -14 13 -11 5 6 22 -5 80 -53 7 -6 17 -10 24 -10 6 0 22 -12 35
-26 13 -14 29 -22 34 -19 6 3 10 2 10 -4 0 -11 85 -71 101 -71 5 0 9 -5 9 -11
0 -5 5 -7 10 -4 6 3 13 -1 16 -9 3 -9 10 -14 14 -11 4 3 10 -2 14 -10 3 -8 12
-15 21 -15 8 0 15 -4 15 -9 0 -5 14 -14 30 -21 17 -7 30 -17 30 -23 0 -6 3 -8
6 -4 4 3 12 1 20 -6 30 -27 43 -37 49 -37 3 0 15 -9 27 -20 12 -10 24 -17 28
-15 5 3 10 -2 14 -10 3 -8 12 -15 20 -15 7 0 16 -6 19 -13 4 -11 -243 -13
-1386 -13 l-1392 1 0 902 c0 496 -4 905 -8 910 -5 4 -12 8 -16 8 -3 0 -17 10
-30 22 -13 12 -36 27 -52 33 -16 7 -29 16 -29 21 0 5 -7 9 -15 9 -8 0 -15 4
-15 10 0 9 -54 41 -66 39 -4 0 -11 6 -16 15 -5 9 -16 16 -23 16 -8 0 -15 4
-15 8 0 5 -12 15 -27 23 -15 8 -35 22 -45 32 -10 9 -24 17 -32 17 -8 0 -17 7
-20 16 -3 8 -10 13 -15 10 -5 -3 -12 1 -15 10 -3 9 -13 14 -21 10 -8 -3 -17 0
-21 6 -5 7 -2 8 7 4 8 -4 3 2 -11 13 -14 11 -32 18 -40 15 -8 -3 -11 -2 -7 2
9 10 -54 55 -66 47 -6 -3 -7 -1 -3 5 4 7 1 12 -8 12 -9 0 -16 5 -16 11 0 5 -4
8 -9 5 -5 -3 -12 1 -15 10 -3 8 -10 12 -16 9 -5 -3 -10 -3 -10 2 0 4 -21 21
-48 37 -26 17 -71 50 -99 74 -29 25 -53 41 -54 36 0 -5 -4 1 -9 14 -5 12 -16
22 -25 22 -8 0 -14 4 -13 9 2 5 -19 30 -46 55 -26 25 -45 46 -42 46 4 0 -3 10
-15 23 -11 12 -35 42 -52 67 -17 25 -35 48 -41 52 -6 4 -7 8 -2 8 5 0 2 8 -6
18 -9 9 -19 27 -22 40 -4 12 -12 22 -17 22 -6 0 -7 5 -4 10 3 6 1 10 -5 10 -6
0 -9 4 -6 9 3 4 -1 17 -9 27 -8 10 -15 27 -15 37 0 9 -5 17 -11 17 -5 0 -7 5
-4 10 3 6 2 10 -3 10 -5 0 -9 7 -10 15 -1 8 -3 22 -4 30 -1 8 -5 15 -10 15 -5
0 -6 5 -3 10 3 6 2 10 -2 10 -8 0 -8 -3010 -1 -3117 2 -23 6 -44 10 -48 4 -4
4 -13 1 -21 -3 -8 -2 -22 2 -31 7 -17 16 -62 18 -90 0 -7 4 -13 9 -13 5 0 7
-4 3 -9 -3 -5 -1 -12 4 -16 6 -3 8 -12 4 -20 -3 -8 0 -15 6 -15 7 0 11 -6 10
-12 -3 -20 12 -68 22 -68 5 0 5 -7 2 -17 -5 -12 -3 -14 7 -8 10 6 12 4 7 -8
-3 -9 4 -28 16 -44 12 -15 21 -30 21 -33 -3 -12 17 -50 26 -50 6 0 9 -4 5 -9
-3 -5 2 -16 10 -24 8 -9 15 -20 15 -26 0 -5 15 -24 32 -42 18 -18 26 -29 18
-24 -14 8 1 -10 55 -69 11 -12 32 -37 48 -55 15 -18 27 -30 27 -27 0 4 15 -9
34 -29 19 -19 39 -35 45 -35 6 0 11 -5 11 -11 0 -5 4 -7 10 -4 5 3 10 -1 10
-9 0 -9 6 -16 13 -16 8 0 22 -9 32 -20 10 -11 22 -20 27 -20 5 0 18 -9 30 -20
12 -11 30 -20 40 -20 10 0 18 -4 18 -9 0 -9 25 -21 43 -21 4 1 15 -6 23 -15 9
-8 20 -13 25 -10 5 4 9 1 9 -5 0 -7 7 -10 15 -6 8 3 15 2 15 -3 0 -4 19 -14
43 -21 23 -8 46 -16 52 -19 5 -3 19 -6 30 -8 30 -5 59 -11 65 -14 3 -1 10 -3
15 -4 6 -2 12 -4 15 -5 7 -3 48 -9 110 -17 112 -13 1885 -7 1885 7 0 2 31 7
73 11 17 2 32 7 32 11 0 4 6 5 14 2 8 -3 17 -1 20 5 4 6 13 8 21 4 8 -3 15 -1
15 4 0 5 10 10 22 10 13 1 24 7 26 13 2 5 8 8 12 5 9 -6 81 25 91 38 3 5 8 8
10 8 14 -2 49 13 49 21 0 5 5 6 11 2 6 -3 24 7 41 22 17 16 27 22 23 14 -8
-13 -7 -13 11 0 10 8 27 23 37 35 10 11 16 13 12 5 -4 -8 2 -5 13 7 11 12 22
19 26 16 3 -4 6 -1 6 5 0 6 9 14 20 17 11 4 18 11 15 16 -4 5 -2 9 4 9 5 0 16
6 23 13 7 6 28 24 46 40 19 15 31 27 28 27 -3 0 11 17 32 38 57 59 89 96 72
87 -8 -5 0 6 18 24 18 19 31 36 28 39 -3 3 1 10 9 16 7 6 15 18 17 26 2 8 11
23 21 35 27 30 43 60 26 49 -8 -4 -4 5 9 20 12 16 19 32 16 37 -3 5 0 9 7 9 7
0 9 3 6 7 -4 3 -3 11 2 17 7 9 34 81 36 96 0 3 4 11 8 17 4 7 10 25 12 40 3
16 9 46 14 67 5 22 8 44 5 48 -3 4 -1 8 4 8 4 0 8 20 7 45 0 25 2 45 5 45 6 0
4 1041 -2 1095 -2 17 -6 35 -9 40 -4 6 -5 18 -4 28 2 9 0 17 -5 17 -4 0 -6 8
-3 19 3 10 0 22 -6 25 -5 4 -8 13 -5 20 3 8 0 17 -5 21 -6 3 -9 10 -6 15 3 5
-4 25 -15 45 -11 20 -16 34 -11 31 5 -3 1 12 -10 33 -10 22 -19 44 -19 49 0 5
-10 22 -22 38 -13 16 -16 25 -8 20 8 -4 7 -1 -2 7 -10 8 -15 17 -11 20 3 4 1
7 -6 7 -7 0 -10 4 -6 9 3 5 -2 16 -10 24 -8 9 -15 20 -15 25 0 6 -7 13 -16 16
-8 3 -12 10 -9 16 3 5 1 10 -4 10 -6 0 -10 6 -8 13 1 6 -4 11 -11 9 -8 -1 -11
2 -8 7 4 5 -2 14 -11 20 -10 6 -14 11 -8 11 5 0 -8 16 -30 36 -22 20 -31 31
-20 23 11 -7 -7 15 -40 49 -33 34 -66 62 -74 62 -8 0 -12 3 -8 6 5 5 -21 30
-87 83 -17 14 -18 14 -11 1 5 -8 -4 -2 -18 13 -15 16 -32 25 -39 21 -7 -4 -8
-3 -4 4 4 7 1 12 -8 12 -9 0 -16 5 -16 11 0 5 -5 7 -10 4 -6 -3 -13 1 -16 9
-3 9 -10 14 -14 11 -4 -3 -11 2 -14 11 -3 8 -10 13 -15 9 -6 -3 -14 3 -20 12
-6 10 -11 14 -11 10 0 -4 -6 -3 -12 3 -53 44 -74 60 -82 60 -5 0 -15 8 -23 18
-9 10 -12 11 -7 2 4 -8 -3 -5 -15 8 -12 12 -27 19 -33 16 -6 -4 -8 -3 -4 4 3
6 -7 16 -24 24 -16 7 -30 17 -30 21 0 5 -4 6 -9 3 -5 -4 -11 -3 -13 1 -2 5
-16 19 -33 33 -16 14 -25 18 -20 10 6 -9 0 -5 -12 9 -12 14 -25 22 -29 18 -4
-4 -13 2 -21 13 -8 11 -19 20 -24 20 -5 0 -20 9 -32 21 -12 11 -37 27 -54 36
-18 8 -33 20 -33 25 0 5 -4 6 -10 3 -5 -3 -10 -1 -10 5 0 6 -4 8 -10 5 -5 -3
-10 -2 -10 4 0 5 -14 20 -32 32 -18 14 -28 17 -24 8 6 -11 5 -11 -6 1 -19 21
-75 60 -88 60 -5 0 -10 3 -10 8 0 4 -12 16 -27 26 -17 13 -24 14 -19 5 6 -11
4 -10 -6 1 -25 28 -62 56 -53 40 4 -8 -2 -6 -13 5 -37 36 -50 44 -56 38 -3 -4
-6 -2 -6 4 0 11 -40 41 -61 45 -7 2 -26 15 -42 31 -17 15 -32 25 -35 23 -2 -3
-16 6 -30 20 -15 13 -32 24 -39 24 -7 0 -13 5 -13 11 0 5 -4 8 -9 5 -5 -4 -11
-2 -13 3 -4 11 -228 162 -228 154 0 -4 -7 2 -15 13 -8 10 -15 15 -15 11 0 -4
-10 1 -22 13 -12 11 -27 20 -33 20 -6 0 -18 8 -27 18 -23 24 -48 44 -48 37 0
-2 -9 3 -20 13 -12 9 -22 15 -23 12 -2 -4 -33 20 -63 48 -8 7 -14 10 -14 5 0
-4 -5 0 -11 10 -6 9 -14 15 -20 12 -5 -4 -9 -1 -9 5 0 6 -4 9 -9 6 -5 -3 -12
1 -15 10 -3 8 -10 12 -16 9 -5 -3 -10 -3 -10 2 0 9 -70 59 -79 57 -3 -1 -12 7
-19 17 -7 11 -20 19 -28 19 -8 0 -14 5 -14 11 0 5 -4 7 -10 4 -5 -3 -10 -2
-10 3 0 5 -12 15 -27 23 -16 8 -30 16 -33 19 -24 25 -52 43 -46 30 6 -13 5
-13 -6 0 -22 26 -93 76 -84 60 4 -8 -2 -4 -13 9 -12 13 -21 19 -21 15 0 -5 -5
-1 -11 9 -6 9 -14 15 -19 12 -4 -3 -10 2 -14 10 -3 8 -15 15 -26 15 -12 0 -19
4 -16 8 2 4 -4 14 -16 21 -16 10 -19 10 -13 -1 3 -7 -1 -4 -10 7 -9 11 -20 20
-26 20 -5 0 -13 5 -17 10 -11 17 -72 57 -72 48 0 -4 -5 0 -11 10 -5 9 -17 17
-24 17 -8 0 -15 5 -15 10 0 6 -7 10 -15 10 -8 0 -15 5 -15 10 0 6 -7 10 -15
10 -8 0 -15 5 -15 12 0 6 -3 9 -6 5 -3 -3 -18 5 -32 19 -15 13 -32 24 -39 24
-6 0 -13 3 -15 8 -4 10 -96 72 -111 75 -7 1 -18 10 -25 20 -7 9 -17 15 -21 13
-4 -3 -13 4 -21 14 -8 10 -17 17 -22 14 -4 -3 -8 0 -8 5 0 6 -6 11 -14 11 -8
0 -16 3 -18 8 -1 4 -21 20 -42 36 -22 16 -36 23 -31 15 5 -8 -4 -1 -18 14 -15
15 -31 26 -36 23 -5 -3 -12 1 -15 10 -4 9 -9 14 -12 11 -3 -2 -17 6 -31 19
-14 13 -32 24 -39 24 -8 0 -14 5 -14 10 0 6 -6 10 -14 10 -8 0 -16 7 -20 15
-3 8 -10 15 -16 15 -6 0 -18 7 -27 15 -8 8 -19 12 -25 9 -7 -4 -8 -2 -4 4 6
11 1 14 -20 11 -3 0 -12 8 -20 18 -7 10 -14 14 -14 9 0 -6 -7 -1 -15 10 -8 10
-15 16 -15 12 0 -4 -11 4 -25 18 -14 14 -30 22 -37 18 -7 -4 -8 -3 -4 4 6 10
-4 16 -25 14 -3 -1 -6 5 -6 11 0 9 315 12 1396 12 l1395 0 0 -905 0 -905 30
-22 c17 -12 37 -27 44 -33 7 -6 16 -8 22 -5 5 3 14 -4 20 -16 7 -11 14 -18 17
-15 4 3 12 -3 20 -14 8 -11 20 -20 28 -20 7 0 15 -4 17 -9 2 -5 9 -11 17 -13
14 -3 41 -21 66 -45 8 -7 16 -13 19 -13 8 0 100 -63 108 -74 4 -6 8 -7 8 -3 0
5 7 2 15 -5 33 -30 45 -38 55 -38 5 0 10 -5 10 -11 0 -5 5 -7 10 -4 6 3 13 -1
16 -9 3 -9 12 -16 20 -16 8 0 14 -4 14 -10 0 -5 7 -10 15 -10 8 0 15 -4 15
-10 0 -5 7 -10 15 -10 8 0 15 -3 15 -8 0 -4 9 -13 21 -20 17 -11 20 -11 14 0
-5 7 2 4 13 -7 36 -34 51 -45 62 -45 5 0 10 -4 10 -10 0 -5 3 -9 8 -7 4 1 17
-7 29 -18 30 -28 51 -45 56 -45 15 0 227 -226 219 -234 -3 -3 0 -6 6 -6 7 0
12 -6 12 -13 0 -7 9 -19 19 -27 11 -7 18 -17 16 -20 -2 -4 3 -16 13 -26 9 -11
18 -26 20 -34 2 -8 8 -19 15 -25 7 -5 14 -19 15 -30 2 -10 11 -25 20 -33 10
-7 11 -11 5 -7 -9 4 -8 -3 2 -22 15 -27 35 -77 41 -98 1 -5 6 -21 11 -34 6
-14 8 599 7 1545 -3 1372 -5 1649 -14 1649 -1 0 -3 9 -5 20 -15 82 -20 103
-47 181 -12 38 -26 71 -31 72 -4 2 -5 8 -1 13 3 5 1 9 -5 9 -6 0 -8 7 -5 15 4
8 -1 17 -10 21 -9 3 -14 10 -11 14 3 5 0 14 -7 22 -7 7 -14 20 -16 28 -2 8 -8
17 -13 18 -5 2 -7 8 -3 13 3 5 0 9 -5 9 -6 0 -11 6 -11 13 0 7 -9 23 -20 35
-11 12 -20 26 -20 31 0 5 -10 17 -22 25 -12 9 -18 16 -13 16 6 1 -6 15 -25 32
-19 17 -28 27 -20 22 8 -4 -10 17 -40 48 -30 31 -58 54 -64 51 -5 -3 -6 -2 -3
4 6 10 -26 43 -42 43 -5 0 -12 7 -15 16 -4 9 -9 14 -13 11 -3 -4 -14 5 -25 18
-11 14 -24 23 -29 20 -5 -4 -9 -3 -9 2 0 4 -12 17 -27 27 -16 12 -23 14 -18 5
4 -8 -2 -4 -14 9 -12 12 -26 20 -32 17 -5 -4 -9 -2 -9 3 0 8 -62 44 -80 47 -3
0 -15 6 -26 13 -12 6 -24 8 -28 5 -3 -3 -6 -2 -6 4 0 9 -46 24 -66 22 -4 0
-10 4 -13 9 -4 6 -20 13 -36 16 -17 2 -30 5 -30 6 0 4 -42 11 -67 12 -16 1
-28 5 -28 9 0 4 -8 6 -17 4 -10 -1 -22 0 -28 3 -5 4 -30 7 -55 8 -25 1 -45 3
-45 4 0 4 -1706 6 -1710 2z m2526 -3679 c13 -16 12 -17 -3 -4 -10 7 -18 15
-18 17 0 8 8 3 21 -13z"/>
</g>
</svg>
